 <svg  version="1.0" xmlns="http://www.w3.org/2000/svg"  width="1247.000000pt" height="231.000000pt" viewBox="0 0 1247.000000 231.000000"  preserveAspectRatio="xMidYMid meet">  <g transform="translate(0.000000,231.000000) scale(0.100000,-0.100000)" fill="#1e45d2" stroke="none"> <path d="M1905 2148 c-3 -7 -4 -126 -3 -263 l3 -250 60 0 60 0 3 88 3 87 29 0 c26 0 33 -8 71 -80 23 -45 49 -85 58 -90 22 -11 126 -7 126 5 0 14 -44 95 -51 95 -3 0 6 -21 20 -46 14 -26 26 -47 26 -48 0 0 -28 0 -63 2 l-63 4 -45 84 c-43 82 -45 84 -81 84 l-38 0 0 -87 0 -88 -55 0 -55 0 0 254 0 254 133 -5 c139 -5 171 -14 214 -60 27 -29 45 -95 38 -139 -5 -31 -5 -32 5 -9 25 57 -14 150 -79 188 -42 24 -56 27 -178 30 -106 4 -134 2 -138 -10z"/> <path d="M2524 2152 c-11 -7 -126 -343 -120 -349 2 -3 30 73 61 166 64 192 57 184 160 179 l58 -3 33 -95 c18 -52 33 -91 33 -85 1 15 -50 168 -62 183 -10 13 -144 17 -163 4z"/> <path d="M2918 2154 c-5 -4 -8 -121 -8 -260 0 -233 1 -252 18 -256 22 -6 244 1 251 7 2 3 -55 5 -127 5 l-132 0 0 249 0 248 88 2 c233 4 324 -59 343 -237 l8 -77 -3 75 c-4 114 -51 188 -146 228 -38 16 -280 30 -292 16z"/> <path d="M3575 2148 c-26 -71 -74 -222 -71 -225 2 -3 21 48 42 111 l38 116 77 0 77 0 15 -37 c9 -21 16 -32 16 -25 1 7 -6 26 -14 42 -15 29 -17 30 -96 30 -54 0 -81 -4 -84 -12z"/> <path d="M4107 2146 c-55 -15 -94 -47 -113 -93 -29 -68 -9 -162 42 -202 13 -10 24 -22 24 -25 0 -3 -20 -42 -45 -87 -25 -45 -45 -87 -45 -93 0 -12 76 -19 116 -11 14 3 35 32 65 90 39 75 47 85 72 85 l27 0 0 -74 c0 -99 3 -106 54 -106 22 0 51 3 64 6 l22 6 -2 257 -3 256 -115 2 c-70 1 -134 -3 -163 -11z m257 -2 c14 -5 16 -37 16 -250 l0 -244 -60 0 -60 0 0 85 0 85 -34 0 c-33 0 -36 -4 -79 -82 l-44 -83 -62 -3 c-33 -2 -61 -1 -61 1 0 3 20 41 45 86 25 45 45 85 45 90 0 5 -11 16 -24 24 -50 33 -71 132 -42 200 18 44 48 68 103 83 49 13 229 19 257 8z"/> <path d="M4160 2053 c-33 -12 -50 -37 -50 -74 0 -50 27 -69 97 -69 l53 0 0 75 0 75 -42 -1 c-24 0 -50 -3 -58 -6z m90 -68 l0 -65 -46 0 c-66 0 -84 13 -84 59 0 52 21 67 98 70 l32 1 0 -65z"/> <path d="M100 1895 l0 -255 58 0 58 0 -4 160 c-2 88 0 160 5 160 5 0 28 -53 53 -117 79 -213 72 -201 116 -194 l38 6 61 154 60 154 3 -161 2 -162 60 0 60 0 0 255 0 256 -77 -3 -76 -3 -39 -95 c-81 -198 -91 -220 -98 -213 -4 4 -33 71 -65 148 -31 77 -62 146 -67 153 -7 7 -36 12 -79 12 l-69 0 0 -255z m158 157 c12 -32 22 -63 22 -70 0 -7 5 -12 10 -12 6 0 10 -6 10 -14 0 -22 46 -121 63 -135 27 -22 52 3 86 86 18 43 44 106 58 141 l26 62 51 0 52 0 -2 -202 c0 -112 -2 -209 -3 -215 0 -7 -12 -13 -26 -13 l-25 0 0 129 c0 108 -3 132 -17 150 -15 17 -21 18 -33 8 -15 -12 -60 -98 -60 -115 0 -5 -9 -27 -20 -50 -11 -22 -20 -48 -20 -57 0 -25 -31 -65 -51 -65 -13 0 -23 15 -36 51 -10 29 -36 95 -58 148 -32 75 -45 97 -62 99 -34 5 -40 -21 -42 -199 l-1 -106 -25 5 -25 4 0 214 0 214 53 0 52 0 23 -58z"/> <path d="M790 2100 l0 -50 160 0 160 0 0 50 0 50 -160 0 -160 0 0 -50z m290 0 c0 -6 -50 -10 -130 -10 -80 0 -130 4 -130 10 0 6 50 10 130 10 80 0 130 -4 130 -10z"/> <path d="M1240 1896 l0 -256 103 0 c116 0 189 16 242 51 105 71 120 285 27 382 -55 58 -95 70 -239 75 l-133 4 0 -256z m287 202 c15 -6 32 -10 38 -9 5 2 7 -1 3 -4 -4 -4 3 -16 16 -26 72 -57 79 -239 13 -321 -32 -40 -106 -61 -217 -62 l-105 -1 -5 213 c-3 118 -3 216 -1 218 10 9 232 3 258 -8z"/> <path d="M1347 2062 c-12 -13 -16 -47 -18 -158 -4 -176 4 -194 81 -194 60 0 96 13 127 46 37 41 43 59 43 141 0 68 -4 84 -26 116 -30 44 -58 57 -135 62 -44 3 -60 0 -72 -13z m138 -26 c18 -8 40 -25 49 -38 22 -35 29 -116 14 -167 -18 -59 -50 -81 -126 -88 l-62 -6 0 157 0 156 45 0 c25 0 61 -6 80 -14z"/> <path d="M3771 2060 c0 -8 4 -22 9 -30 12 -18 12 -2 0 25 -6 13 -9 15 -9 5z"/> <path d="M2027 2053 c-4 -3 -7 -37 -7 -75 l0 -68 59 0 c62 0 84 11 96 51 12 37 -4 69 -40 85 -36 15 -97 19 -108 7z m123 -28 c24 -22 26 -53 4 -83 -12 -18 -25 -22 -70 -22 l-54 0 0 66 0 67 50 -5 c28 -3 59 -13 70 -23z"/> <path d="M3030 1895 l0 -155 58 2 57 2 -52 3 -53 4 0 145 0 144 53 0 c60 0 113 -27 122 -62 3 -13 10 -46 15 -73 l9 -50 -5 59 c-2 32 -9 67 -15 78 -19 35 -70 58 -131 58 l-58 0 0 -155z"/> <path d="M3651 2008 c-18 -48 -81 -254 -81 -266 0 -13 176 -18 183 -4 2 4 -2 23 -9 42 l-14 35 6 -32 5 -31 -80 -4 c-50 -2 -81 1 -80 7 0 6 20 69 43 140 24 72 42 132 40 134 -2 2 -8 -7 -13 -21z"/> <path d="M2586 1989 c-8 -19 -17 -48 -20 -65 -6 -27 1 -11 30 66 4 13 6 13 14 0 6 -8 10 -10 10 -5 0 6 -5 17 -10 25 -7 12 -12 7 -24 -21z"/> <path d="M3671 1994 c-1 -5 10 -41 23 -80 14 -38 25 -64 25 -58 1 5 -10 41 -23 80 -14 38 -25 64 -25 58z"/> <path d="M3802 1975 c0 -5 6 -26 13 -45 7 -19 14 -28 14 -20 0 8 -6 29 -14 45 -7 17 -13 26 -13 20z"/> <path d="M2621 1965 c-1 -6 14 -56 33 -110 19 -55 35 -95 35 -90 1 6 -14 56 -33 110 -19 55 -35 95 -35 90z"/> <path d="M822 1898 l3 -43 133 -3 132 -3 0 46 0 45 -136 0 -135 0 3 -42z m238 1 c0 -10 -11 -11 -118 -10 -72 0 -96 6 -88 19 6 11 206 2 206 -9z"/> <path d="M2760 1919 c0 -3 20 -64 44 -137 l45 -132 -244 0 c-185 0 -245 3 -249 13 -3 6 -5 3 -3 -8 2 -19 10 -20 251 -20 136 0 250 3 252 6 4 7 -82 268 -91 277 -3 3 -5 3 -5 1z"/> <path d="M3477 1858 c-9 -29 -15 -54 -13 -56 2 -2 12 20 21 48 9 28 15 53 13 55 -2 3 -12 -19 -21 -47z"/> <path d="M2242 1861 l-34 -29 21 -41 c12 -22 24 -41 26 -41 3 0 -4 18 -15 40 l-20 40 32 30 c42 38 34 38 -10 1z"/> <path d="M2527 1806 c-9 -29 -17 -58 -17 -64 0 -14 176 -17 184 -4 3 5 -35 8 -84 7 -50 -1 -90 1 -90 5 0 3 7 28 16 54 9 26 14 49 12 51 -2 3 -12 -19 -21 -49z"/> <path d="M3217 1820 c-4 -19 -18 -37 -39 -50 -18 -11 -27 -20 -20 -20 21 0 72 56 72 79 0 30 -7 26 -13 -9z"/> <path d="M3341 1816 c-2 -33 -50 -105 -89 -131 -20 -14 -32 -25 -27 -25 39 0 132 121 122 158 -4 14 -5 14 -6 -2z"/> <path d="M3850 1829 c0 -3 13 -44 29 -92 l30 -87 -245 0 c-134 0 -244 4 -244 9 0 5 7 28 15 51 8 24 13 45 11 47 -6 7 -38 -96 -34 -109 3 -9 69 -12 252 -13 136 -1 249 2 251 6 5 7 -50 178 -60 187 -3 3 -5 3 -5 1z"/> <path d="M2381 1753 c-1 -6 -4 -20 -7 -30 -5 -17 -5 -17 6 0 6 10 9 23 6 30 -3 9 -5 9 -5 0z"/> <path d="M774 1726 c-3 -8 -4 -29 -2 -47 l4 -34 177 -3 177 -2 0 49 0 49 -175 1 c-141 0 -177 -2 -181 -13z m316 -35 c0 -9 -257 -20 -280 -13 -6 2 -8 8 -4 13 7 12 284 12 284 0z"/> </g> </svg> 